<svg xmlns="http://www.w3.org/2000/svg" id="Layer_1" x="0" y="0" version="1.1" viewBox="0 0 280 280"><style>.st0{fill:#252d37}.st1{fill:#fff}.st2{fill:#ad563a}.st4{fill:#5fc69b}.st8{fill:#ffbb95}.st13{fill:#542816}</style><path d="M110.4 51.9c-.5 0-1-.1-1.5-.2-4.2-.9-6.8-5.5-5.7-10.3.5-2.3 1.7-4.3 3.5-5.6 1.8-1.3 3.9-1.8 5.9-1.4 4.2.9 6.8 5.5 5.7 10.3-.5 2.3-1.7 4.3-3.5 5.6a6.83 6.83 0 0 1-4.4 1.6zm.8-16.7c-1.4 0-2.7.5-3.9 1.4-1.6 1.2-2.7 3-3.2 5.1-.9 4.3 1.3 8.4 5 9.2 1.8.4 3.6-.1 5.2-1.2 1.6-1.2 2.7-3 3.2-5.1.9-4.3-1.3-8.4-5-9.2-.5-.2-.9-.2-1.3-.2zm6.3 40.1c-9.4-7.9-9-16.4-9.5-19L95.9 73.1l-1 9.9 27.6 2.8c.6-1 .2-6-5-10.5z" class="st0"/><path d="M96.7 81.8c-2.9 8.7-9.9 10-13.2 9.6-10.5-.6-16.3-10.2-18-15.2 0 0-.1 0-.1-.1-5.9-3.7-19.4-7-32.6-4.8-26.9 4.4-47.2 92.8-19.5 128.1 4.8 6.1 31.4 18.4 68.1-18.9l8.2-17.7 62.4-26.6c-.5-14.6 4.1-52.9-55.3-54.4z" class="st1"/><path d="M65.3 76c0 .2.1.2.1.1 0 0 0-.1-.1-.1z" class="st2"/><path d="M120.1 50.2c.1-2.1-3.5-5.8-5.8-7.1.4-9.1-.3-20.3-4.9-24.7-6.4-6.1-27.8-4.4-37.7-2.8 0 0-5.2 58.8-6.4 60.4 1.7 5 7.5 14.6 18 15.3 3.4.4 10.5-.9 13.3-9.8h.1s-1.6-.4.1-7.2c7.3.4 11.3-1.2 14.4-10 1.7-4.8 2.2-8.1 2.3-10 2.7-.9 6.6-2.1 6.6-4.1z" class="st2"/><path d="M96.7 81.6c-2.8 8.9-9.9 10.2-13.3 9.8-10.6-.7-16.4-10.5-18-15.4h-.1c4.2 19 8.6 62 9.3 74.3l22.3-9.6-.2-59.1z" style="fill:#fed337"/><path d="M101.5 263.2c0-8.6-.8-40.6 3.4-54.5l22.8-3.2 44.2-8.4 69 8.4c1.9 9.3.8 40.9 0 55.6-25.8 18.2-100.7 9.7-139.4 2.1z" class="st4"/><path d="M115.5 52.6c1-.5.2-1-1.5-.6-1.8.4-.4 1.4 1.5.6z" class="st2"/><path d="m81.6 36.935.243-.867 15.7 4.381-.242.867z" class="st0"/><path d="M112.7 64.6c-.3-2.3 0-5 .7-7.1-.9 0-3.8.1-9.9-3-5.1-2.7-6.1.9-1.6 4.6 2.6 2.1 6.2 4 10.8 5.5z" style="fill:#fff0bb"/><path d="M110.5 32.8c-.1 0-.3-.1-.3-.2-2-2.2-5.8-1.9-7.2-1.2-.2.1-.5 0-.6-.2-.1-.2 0-.5.2-.6 1.7-.9 6-1.3 8.4 1.3.2.2.2.5 0 .7-.2.2-.3.2-.5.2zm-6.1 18.1c-.5 0-1-.1-1.5-.2-4.2-.9-6.8-5.5-5.7-10.3.5-2.5 2-4.7 4-6 1.7-1.1 3.6-1.5 5.4-1.1 4.2.9 6.8 5.5 5.7 10.3-.5 2.3-1.7 4.3-3.5 5.6-1.3 1.1-2.8 1.7-4.4 1.7zm.8-16.8c-1.2 0-2.4.4-3.5 1.1-1.8 1.2-3.1 3.1-3.6 5.4-.9 4.3 1.3 8.4 5 9.2 1.8.4 3.6-.1 5.2-1.2 1.6-1.2 2.7-3 3.2-5.1.9-4.3-1.3-8.4-5-9.2-.4-.1-.9-.2-1.3-.2z" class="st0"/><path d="M107 43.5c-1.1-.2-4.7-1-6.4-1.3-2-.4 2.6-3.1 6-2.5 3.2.5 1.9 4 .4 3.8z" class="st1"/><defs><filter id="Adobe_OpacityMaskFilter_001_" width="3.3" height="3.3" x="105.3" y="40.6" filterUnits="userSpaceOnUse"><feColorMatrix values="1 0 0 0 0 0 1 0 0 0 0 0 1 0 0 0 0 0 1 0"/></filter></defs><mask id="mask0_928_19746_00000129903360849473396120000010931078523508155572_" width="3.3" height="3.3" x="105.3" y="40.6" maskUnits="userSpaceOnUse"><path d="M107 43.5c-1.1-.2-4.7-1-6.4-1.3-2-.4 2.6-3.1 6-2.5 3.2.5 1.9 4 .4 3.8z" style="fill:#fff;filter:url(#Adobe_OpacityMaskFilter_001_)"/></mask><circle cx="106.9" cy="42.3" r="1.6" class="st0" style="mask:url(#mask0_928_19746_00000129903360849473396120000010931078523508155572_)"/><path d="M107.8 135.2c20.1-16.6 42.2-11.2 49-6.5l36.5 1.3c8.3-5.9 29.8-11.3 49.1 14.4 24.2 32 53.8 92.4 26.8 105.2-21.6 10.2-46.5-26.9-56.4-45.3h-75.3c-19.8 36.1-59 69.4-71.3 45.3C51.8 221 82.6 156 107.8 135.2z" class="st4"/><path d="M128.4 142.4c-5.6-1.3-7.2 17.2-6.8 26h7.7c2-8.2 4.7-24.7-.9-26z" class="st8"/><path d="M42.4 160.8c-.3 0-.5-.2-.5-.5.7-7.5.3-31.6 0-43.3 0-.3.2-.5.5-.5s.5.2.5.5c.3 11.7.7 35.9 0 43.5-.1.1-.3.3-.5.3zm58-20.1h-.9c.2-5.6 5.9-13.7 8.9-17.4-.1-2.3-3.3-8.3-5.4-11.8l-.2-.3 7.3-6.9c.1-6.7-3.8-16.9-5.8-21.5l.8-.4c2.1 4.6 6.1 15.2 5.9 22.1v.2l-7.1 6.7c1 1.7 5.3 9.3 5.3 12.2v.2l-.1.1c-2.8 3.3-8.5 11.4-8.7 16.8z" class="st0"/><path d="M118.1 155.6c-1.1 7-2.8 20.6-4.3 28.3l22.7 18.1.2-.3c8-11.3 24.3-34.3 21-39.8-3.4-5.5-9.9 5.4-15 12.6-4.1-4-2.3-12.6 6.1-12.6 4.1 0 5.8-1.1 6.3-2.6.6-1.8-1.2-3.4-3-4-11.4-3.6-15.4 3.4-18.8 8.2 1-4.7 6.5-23.7 0-23.7-4.6 0-6.3 13.5-8 23.7.7-4.4 0-3.1 0-8.8-.1-5.5-6-6.1-7.2.9zm70.5 5.5c-6.6 2.2 13.2 31.5 23.5 38.9l23.1-15.7c-3.6-9.2-7.1-25.8-14.5-27.7-5.3-1.4-11.6-1.6-13.2-.7-.8-.1-4.1-.6-11.1-2.7-8.4-2.5-11.3.4-10.3 3.4.8 2.4 10.7 6.5 15.6 8.3l.4 7.5c-1.2-2.9-7.7-13.2-13.5-11.3z" class="st8"/><path d="M243.8 244.4c-.1 0-.2 0-.3-.1-15-13.4-23.1-26.9-30.3-38.8-.8-1.4-1.7-2.7-2.5-4.1l-.2-.4 27.8-19.6.3.2c6.9 6 20.6 19.2 27.1 27.3.2.2.1.5-.1.7-.2.2-.5.1-.7-.1-6.4-7.9-19.7-20.9-26.7-27l-26.5 18.7c.7 1.2 1.5 2.4 2.3 3.7 7.2 11.8 15.3 25.3 30.1 38.6.2.2.2.5 0 .7-.1.1-.2.2-.3.2z" class="st0"/><path d="M180.6 37.4c0 5.6-24.7 22.7-28.6 19.6-4.8-4 28.6-25.2 28.6-19.6z" style="fill:#9e9e9e"/><path d="M136.7 40.1c11.9 2.6 23.6 9.5 27.8 12.7 8.7-2.4 15-12.5 17.2-17.1-.2-3-5.8-10.5-8-13 .1-2.6-.3-6.2-2.2-8.5-1.5-1.9-4.9-1-6.2 0-2.8-2.3-6.6-.8-8 0-3.4-1.2-6.8 1.7-7.4 3-9.6-.1-6.4 12.2-1.4 16.5-16-6-23.5 3.8-11.8 6.4zM69.1 152l15 14.4 25-32.3c-1.2-1.1-8.3-.3-16.5 6.6-4.8 4.1-15.9 8.7-23.5 11.3z" class="st2"/><path d="M148.6 25.7c-.1-.2-.4-.3-.6-.2-.2.1-.3.4-.2.6l.8-.4zm7.2 4.9-.2-.4.2.4zm-5-13.3c-.2-.1-.5-.1-.6.1-.1.2-.1.5.1.6l.5-.7zm-3.1 8.9c.8 1.5 2.1 3 3.6 4s3.2 1.6 4.6.9l-.4-.8c-1 .4-2.3.1-3.7-.9-1.4-.9-2.6-2.3-3.3-3.6l-.8.4zm8.3 4.9c1.3-.6 1.9-1.6 2-2.8.1-1.2-.2-2.5-.9-3.8-1.3-2.6-3.8-5.4-6.4-7.2l-.5.8c2.5 1.7 4.9 4.4 6.1 6.9.6 1.2.9 2.4.8 3.3-.1.9-.5 1.6-1.5 2l.4.8z" class="st0"/><path d="M223.3 104.6c6.1-12.9-24.8-53.1-42.6-71.7-5.5 12.2-21.1 23.9-28.8 23.9l6.6 11.6-3.6 8 35.4 51.6c7.1-3.2 25-6.7 33-23.4z" class="st1"/><path d="M131.1 167.1c-.1 0-.2 0-.2-.1-.2-.1-.3-.4-.2-.6.8-1.3 2.7-4.4 4.5-6.4.2-.2.5-.2.7-.1.2.2.2.5.1.7-1.7 2-3.6 5-4.4 6.3-.2.1-.4.2-.5.2zm-5.5-1.1c-.3 0-.5-.3-.5-.5l3.4-21.6c0-.3.3-.4.5-.4.3 0 .4.3.4.5l-3.4 21.6c0 .2-.2.4-.4.4zm-41.7 27.9c-.2 0-.4-.2-.5-.4 0-.3.1-.5.4-.5 3.9-.7 8.2-1.4 14.2-1.4.3 0 .5.2.5.5s-.2.5-.5.5c-5.9-.1-10.2.6-14.1 1.3z" class="st0"/><path d="M101.5 248.4c-.1 0-.3-.1-.4-.2-.1-.2-.1-.5.1-.6 7.6-5.4 26.3-31.5 35.4-44.9l-25-19.6c-10.6 5.7-24.4 18.9-30.2 25.2-.2.2-.5.2-.7 0-.2-.2-.2-.5 0-.7 5.9-6.4 19.9-19.9 30.7-25.5l.3-.1 26.1 20.5-.2.4c-9 13.3-28 40-35.8 45.5h-.3zm51.7-8.6c-.2 0-.3-.1-.4-.2-.1-.2-.1-.5.2-.6 16.7-9.7 26.8-28 29.8-36.3.1-.2.4-.4.6-.3.2.1.4.4.3.6-3 8.4-13.3 27-30.2 36.8h-.3zm-81.5-95c-3-8.3-8.7-14.2-12.8-18.5l-1.1-1.2v-.2c-.4-3.4 1.7-11.3 2.9-15.3L50.8 97v-.2c.7-9.7 4.2-20.1 6-24.2l.9.4c-1.7 4.1-5.2 14.2-5.9 23.7l9.9 12.7-.1.2c-1.2 3.7-3.3 11.6-3 15l.9 1c4.2 4.4 10 10.4 13 18.9l-.8.3z" class="st0"/><path d="M111.5 21.1c-9.8-10.8-18 16.2-27.2 18.7l-5.8-1.4c.2 1.1.2 4.4-.4 12.1-1 12.6-3 31.2-12.7 25.7-9.7-5.6-25.5-6-33.5-4.8-8.9-22 17-22.4 30.9-50.3 11.2-22.4 44.8-11.7 48.7 0z" class="st0"/><path d="M76.4 36.8c4.2-5 8.1-.2 9.6 2.8-1.5 3.9-5 11.4-7.1 10.4-2.6-1.2-7.8-6.9-2.5-13.2z" class="st2"/><path d="M74.8 46.4c-3.1 1.9-1.6 6.3 1.3 6.4 3.2.1 4.9-4 2.6-6.3" style="fill:none;stroke:#fff;stroke-width:.6513;stroke-linecap:round"/><path d="M81.7 46h-.2c-.2-.1-.4-.4-.3-.6 1.7-4.7-.2-6.8-1.4-7.3-.2-.1-.4-.4-.3-.6.1-.2.4-.4.6-.3 1.5.6 3.9 3.1 2 8.4-.1.3-.2.4-.4.4zm40.4 119.8c-.3 0-.5-.2-.5-.5 0-1.9.8-13.9 1.6-17.6.1-.3.3-.4.6-.4.3.1.4.3.4.6-.8 3.6-1.5 15.6-1.5 17.4-.2.3-.4.5-.6.5z" class="st0"/><path d="M163.7 65.2c-5.9 2.8-10.4 12.5-13.3 21.6-2.9 1.3-10.6 8.7-11 10.8-.3 1.6 3.8 3.3 6.8 4.6-.6 2.1-1.3 5.8-1.2 11.9.2 10.6 4.7 12.1 12.5 15.1 2.4.9 1.3 4.8.6 6.2 8.6 7.2 22.7 5.7 26.9 2.9l9.2-8.1L205.4 76c-10.1-5.4-32.6-15-41.7-10.8z" class="st8"/><path d="M153.3 108.5c-2.5 0-4.9-.5-6.5-1.4-.2-.1-.3-.4-.2-.6.1-.2.4-.3.6-.2 3.6 1.9 11.2 1.7 14.6-1.3.2-.2.5-.1.7 0 .2.2.1.5 0 .7-2.2 1.9-5.8 2.8-9.2 2.8zm12.1-21.3c-.2 0-.3-.1-.4-.3-.7-1.6-3.7-4.3-6.9-3.7-.2 0-.5-.1-.5-.4 0-.3.1-.5.4-.5 3.6-.6 7.1 2.4 7.9 4.3.1.2 0 .5-.2.6h-.3z" class="st0"/><path d="M156.3 92.2c1.1.2 4.8.6 6.5.8 2 .3-1.5-3.7-4.9-4.3-3.1-.5-3.1 3.2-1.6 3.5z" class="st1"/><defs><filter id="Adobe_OpacityMaskFilter_00000129196082774838595330000012159601579659097268_" width="3.3" height="3.3" x="155.3" y="88.6" filterUnits="userSpaceOnUse"><feColorMatrix values="1 0 0 0 0 0 1 0 0 0 0 0 1 0 0 0 0 0 1 0"/></filter></defs><mask id="mask1_928_19746_00000132786877948514110560000017617975878407809958_" width="3.3" height="3.3" x="155.3" y="88.6" maskUnits="userSpaceOnUse"><path d="M156.3 92.2c1.1.2 4.8.6 6.5.8 2 .3-1.5-3.7-4.9-4.3-3.1-.5-3.1 3.2-1.6 3.5z" style="fill:#fff;filter:url(#Adobe_OpacityMaskFilter_00000129196082774838595330000012159601579659097268_)"/></mask><circle cx="157" cy="90.2" r="1.6" class="st0" style="mask:url(#mask1_928_19746_00000132786877948514110560000017617975878407809958_)"/><path d="M69.2 90.2c-.1-.2-.4-.3-.6-.1-.2.1-.3.4-.1.6l.7-.5zm27 2.1c.1-.2 0-.5-.2-.6-.2-.1-.5 0-.6.2l.8.4zm-27.8-1.6c1.3 2.1 6.6 7.4 15 7.3v-.9c-8 .1-13-5-14.2-6.9l-.8.5zm15 7.4c8.3-.1 11.8-4 12.8-5.8l-.8-.5c-.8 1.5-4 5.2-12 5.3v1zm32.1-53.9c-.1 0-.3-.1-.3-.2-.7-.8-2-.6-2.8-.4-.2.1-.5-.1-.6-.3-.1-.2.1-.5.3-.6.6-.2 2.6-.6 3.7.7.2.2.2.5 0 .7-.1 0-.2.1-.3.1zM23.4 166.1c-.2 0-.4-.1-.5-.4-.1-.2.1-.5.3-.6 2.6-.6 8.1-.7 10.6-.7.3 0 .5.2.5.5s-.2.4-.5.5c-2.5 0-7.9.1-10.4.7.1 0 .1 0 0 0z" class="st0"/><path d="M24.6 171.3c-.2 0-.3-.1-.4-.2-.1-.2-.1-.5.1-.6 16.2-10.8 33.4-18.9 41.9-21.3l.3-.1L84.3 166c.2.2.2.5 0 .7-.2.2-.5.2-.7 0l-17.4-16.5c-8.6 2.5-25.5 10.5-41.4 21.1h-.2zM156.7 64.8c-.2 0-.4-.2-.5-.4-.1-.3.1-.5.4-.5 8.9-1.8 26.4-9.1 29-23.9 0-.3.3-.4.5-.4.3 0 .4.3.4.5-2.7 15.3-20.6 22.8-29.8 24.7.1 0 0 0 0 0z" class="st0"/><path d="M174.3 73.7C159 76.8 155.1 74 150 72c-2.8-.7-7.3-3.6-3.6-9.1 3.7-5.6 11.6-3.5 15.1-1.8 4.5-2.4 12.1-6.1 20.5-1.6 6.4 3.5 9.6 2.8 14.7 4.7 21.9 8.5 12.2 37.5 7 48.3 2.4 7.1 0 12.6-1.7 13.9-2.1-.2-7.7 4.6-11 6.4-5.8-3.1-7.6-20.7-4.8-26.1l.6-4.1c-7.5 0-7.8-13.1-4.8-19.4 1.4-3 5.5-12.2-7.7-9.5z" class="st13"/><path d="M191.8 95.9c-2.8-6.9-8.7-3.2-11.4-.5.2 4.7 1.2 14.1 3.9 13.8 3.2-.3 10.9-4.6 7.5-13.3z" class="st8"/><path d="M183.4 103.1c-.3 0-.5-.2-.5-.5-.1-5.9 3-7.5 4.7-7.5.3 0 .5.2.5.5s-.2.5-.5.5c-1.4 0-3.9 1.5-3.8 6.6 0 .2-.2.4-.4.4zm.6 36.9c-.1 0-.2 0-.3-.1-.2-.2-.2-.5 0-.7 2.9-3.3 12.8-12.9 20.4-14 .2 0 .5.1.5.4s-.1.5-.4.5c-6.5 1-15.6 8.9-19.8 13.7-.2.1-.3.2-.4.2z" class="st0"/><path d="M176.5 95.2c.4-5 4.4-10 5.8-12.7l4.4 9.4c-3.9.3-6.3 4.7-7.1 6.8-1.8-.3-3.3-1.7-3.1-3.5z" class="st13"/><path d="M223.3 169.1h-.5c-.3 0-.4-.3-.4-.5 0-.3.3-.4.5-.4.3 0 1.3.1 2.1-.4.2-.1.5-.1.6.1.1.2.1.5-.1.6-.7.4-1.6.6-2.2.6z" class="st0"/><path d="M113.2 52.4c.6-.3 2-.7 3.1-.3" style="fill:none;stroke:#ad563a;stroke-width:.3256;stroke-linecap:round"/><path d="M144.3 100.1c-1-.6.3-.6 1.8-.3 2.3.6-.2 1.6-1.8.3z" style="fill:#eb8839"/><path d="M207.4 157.3c.3 0 .4-.3.4-.5 0-.3-.3-.4-.5-.4l.1.9zm-5.6 11.9h-.5.5zm7.4.6c0-.3-.2-.4-.5-.4s-.5.2-.4.5l.9-.1zm-1.9-13.5c-3.3.5-6.4 4.3-5.9 12.8l.9-.1c-.5-8.4 2.6-11.5 5.1-11.9l-.1-.8zm-6 12.9c.1 2.3.7 3.8 1.4 4.8.8 1 1.8 1.4 2.9 1.2 2-.3 3.7-2.6 3.5-5.4l-.9.1c.2 2.5-1.3 4.2-2.8 4.5-.7.1-1.4-.1-2-.9-.6-.8-1.1-2.1-1.2-4.3h-.9zm19.8-10.1c.3 0 .4-.3.4-.5 0-.3-.3-.4-.5-.4l.1.9zm-5.3 11.3.5-.1-.5.1zm7.3-5.3c0-.3-.3-.4-.5-.4-.3 0-.4.3-.4.5l.9-.1zm-2.2-6.9c-3.1.4-6.5 4.1-5.6 12.2l.9-.1c-.9-7.9 2.4-10.8 4.9-11.2l-.2-.9zm-5.6 12.2c.2 1.9.8 3.3 1.7 4.1.9.8 2.1.9 3.1.4s1.9-1.7 2.5-3.3c.6-1.6.8-3.8.6-6.5l-.9.1c.3 2.6 0 4.6-.5 6.1s-1.3 2.4-2 2.8c-.7.4-1.4.3-2.1-.3-.6-.6-1.2-1.7-1.4-3.5l-1 .1z" class="st0"/><path d="M214 157.8c.2-.1.4-.3.3-.6-.1-.2-.3-.4-.6-.3l.3.9zm-5.4 10.8h.5-.5zm7.5.9c0-.3-.2-.5-.5-.5s-.5.2-.5.5h1zm-2.4-12.6c-1.9.6-3.4 1.7-4.4 3.7-1 1.9-1.4 4.5-1.2 8.1l.9-.1c-.2-3.5.2-5.9 1.1-7.6.8-1.7 2.2-2.7 3.8-3.2l-.2-.9zm-5.5 11.7c.1 2.2.6 3.9 1.4 4.9.8 1 1.8 1.5 2.8 1.4 2-.2 3.8-2.5 3.8-5.4h-.9c0 2.6-1.5 4.3-2.9 4.5-.7.1-1.4-.2-2-1-.6-.8-1.1-2.2-1.2-4.4h-1zM157.7 14.3c-.2-.1-.5 0-.6.2-.1.2 0 .5.2.6l.4-.8zm4.7 14.3.2.4-.2-.4zm-4.7-2.7c-.1-.2-.4-.3-.6-.2-.2.1-.3.4-.2.6l.8-.4zm-.4-10.8c.7.4 1.6 1.2 2.5 2.5.9 1.2 1.8 2.7 2.5 4.2s1.1 3 1.1 4.1c0 1.2-.4 1.9-1.2 2.3l.4.9c1.3-.5 1.8-1.8 1.8-3.1 0-1.4-.5-3-1.2-4.5-.7-1.6-1.6-3.1-2.6-4.4-.9-1.3-1.9-2.3-2.8-2.7l-.5.7zm4.9 13.1c-1 .4-2.1 0-3-.7-.4-.3-.8-.7-1.1-1-.1-.2-.2-.3-.3-.4 0-.1-.1-.1-.1-.1l-.8.4c.1.2.3.5.6.9s.7.8 1.2 1.2c1 .8 2.4 1.4 3.9.8l-.4-1.1z" class="st0"/><path d="M165.6 14.2c-.2-.2-.5-.1-.7.1-.2.2-.1.5.1.7l.6-.8zm1.6 12.1-.1-.4.1.4zm-3-1.8c-.1-.2-.3-.4-.6-.3-.2.1-.4.3-.3.6l.9-.3zm.8-9.6c.5.4 1.1 1.3 1.7 2.3.6 1.1 1.1 2.3 1.4 3.6.3 1.2.4 2.4.3 3.3-.2.9-.6 1.4-1.3 1.7l.3.9c1.2-.3 1.8-1.3 2-2.4.2-1.1.1-2.4-.3-3.7-.3-1.3-.9-2.6-1.5-3.8-.6-1.1-1.3-2.1-2-2.6l-.6.7zm2.1 10.9c-.7.2-1.4 0-2-.4-.3-.2-.5-.4-.7-.6-.1-.1-.1-.2-.2-.2v-.1l-.9.2c0 .1.1.3.2.4.1.1.2.2.3.4.2.2.5.5.9.7.7.5 1.7.8 2.8.5l-.4-.9z" class="st0"/><path d="M173.3 16.9c-.1-.2-.3-.4-.6-.3-.2.1-.4.3-.3.6l.9-.3zm-4.2 4c0-.3-.3-.4-.5-.4-.3 0-.4.3-.4.5l.9-.1zm3.3-3.8c.2.7.7 2.5.8 4.1 0 .8-.1 1.5-.3 2-.2.4-.7.7-1.4.7v.9c1.1 0 1.8-.5 2.2-1.2.4-.7.5-1.6.5-2.5-.1-1.7-.6-3.6-.8-4.3l-1 .3zm-1 6.8c-.8 0-1.3-.6-1.7-1.4-.2-.4-.3-.8-.4-1.1 0-.1-.1-.3-.1-.4v-.1l-.5.1-.5.1v.1c0 .1.1.2.1.4.1.3.2.8.5 1.2.4.9 1.2 1.9 2.6 1.9v-.8zM77.7 176c-.1 0-.2 0-.3-.1l-21.5-21.7c-.2-.2-.2-.5 0-.7.2-.2.5-.2.7 0L78 175.2c.2.2.2.5 0 .7-.1 0-.2.1-.3.1z" class="st0"/><path d="M156.2 158.7h34.2c1.8 0 3.3 1.5 3.3 3.3v19.3c0 1.8-1.5 3.3-3.3 3.3h-34.2c-1.8 0-3.3-1.5-3.3-3.3V162c0-1.8 1.5-3.3 3.3-3.3z" class="st1"/><path d="M157.3 169.8h9.2c.4 0 .7.3.7.7v2.5c0 .4-.3.7-.7.7h-9.2c-.4 0-.7-.3-.7-.7v-2.5c0-.4.3-.7.7-.7z" class="st4"/><path d="M163.8 167.1v9.2c0 .4-.3.7-.7.7h-2.5c-.4 0-.7-.3-.7-.7v-9.2c0-.4.3-.7.7-.7h2.5c.4 0 .7.3.7.7z" class="st4"/><path d="M171 167.5h17.1m-17.1 4h17.1m-17.1 4h10.1" style="fill:none;stroke:#000;stroke-linecap:round"/></svg>